<svg width="64" height="64" viewBox="0 0 64 64" fill="none" xmlns="http://www.w3.org/2000/svg">
<g clip-path="url(#clip0_522_396)">
<path fill-rule="evenodd" clip-rule="evenodd" d="M63.9986 31.9989C63.9986 49.6728 49.6721 63.9991 31.9993 63.9991C14.3265 63.9991 0 49.6728 0 31.9989C0 14.325 14.3265 0 31.9993 0C49.6735 0 63.9986 14.325 63.9986 31.9989Z" fill="url(#paint0_linear_522_396)"/>
<path fill-rule="evenodd" clip-rule="evenodd" d="M58.2026 31.9987C58.2026 46.4713 46.4709 58.2029 31.9981 58.2029C17.5267 58.2029 5.79492 46.4713 5.79492 31.9987C5.79492 17.5275 17.5267 5.7959 31.9981 5.7959C46.4709 5.7959 58.2026 17.5275 58.2026 31.9987Z" fill="url(#paint1_linear_522_396)"/>
<path fill-rule="evenodd" clip-rule="evenodd" d="M56.1229 31.999C56.1229 45.3218 45.3214 56.1204 31.9984 56.1204C18.6754 56.1204 7.87402 45.3218 7.87402 31.999C7.87402 18.6775 18.6754 7.87354 31.9984 7.87354C45.3214 7.87354 56.1229 18.6762 56.1229 31.999Z" fill="url(#paint2_radial_522_396)"/>
<path d="M20.371 20.371L20.371 20.371C17.3915 23.3507 15.75 27.3135 15.75 31.5272C15.75 35.741 17.3915 39.7038 20.371 42.6834L20.5478 42.5066L20.371 42.6834C23.3507 45.663 27.3135 47.3045 31.5272 47.3045C34.5814 47.3045 37.5455 46.4299 40.0984 44.7752C40.7764 44.3357 40.9698 43.4298 40.5303 42.7517C40.0908 42.0736 39.1848 41.8803 38.5068 42.3198C36.4292 43.6664 34.016 44.3783 31.5272 44.3783C24.4413 44.3783 18.6761 38.6131 18.6761 31.5272C18.6761 24.4413 24.4413 18.6761 31.5272 18.6761C38.6131 18.6761 44.3783 24.4413 44.3783 31.5272C44.3783 33.9958 43.6771 36.3926 42.3507 38.4589L42.5611 38.5939L42.3507 38.4589C41.9143 39.1389 42.1116 40.044 42.7916 40.4805L42.9266 40.2701L42.7916 40.4805C43.4715 40.9169 44.3767 40.7196 44.8132 40.0396C46.443 37.5004 47.3045 34.5567 47.3045 31.5272C47.3045 27.3135 45.663 23.3507 42.6835 20.371L42.5067 20.5478L42.6835 20.371C39.7038 17.3915 35.741 15.75 31.5272 15.75C27.3135 15.75 23.3507 17.3915 20.371 20.371Z" fill="#282828" stroke="#282828" stroke-width="0.5"/>
<path d="M24.3382 35.9631L24.3382 35.9631C23.9903 35.2338 24.2993 34.3606 25.0286 34.0126L24.3382 35.9631ZM24.3382 35.9631C24.9764 37.3007 25.9737 38.4325 27.2221 39.2361C28.5059 40.0626 29.9947 40.4994 31.5269 40.4994C33.059 40.4994 34.5479 40.0626 35.8317 39.2361C37.0799 38.4325 38.0773 37.3007 38.7156 35.9631C39.0635 35.2338 38.7545 34.3606 38.0251 34.0126L38.0251 34.0126M24.3382 35.9631L38.0251 34.0126M38.0251 34.0126C37.2958 33.6647 36.4226 33.9737 36.0747 34.703M38.0251 34.0126L36.0747 34.703M36.0747 34.703C35.2429 36.4462 33.4569 37.5733 31.5269 37.5733M36.0747 34.703L31.5269 37.5733M31.5269 37.5733C29.5968 37.5733 27.8109 36.4462 26.9791 34.703M31.5269 37.5733L26.9791 34.703M26.9791 34.703C26.6311 33.9737 25.7579 33.6645 25.0286 34.0126L26.9791 34.703Z" fill="#282828" stroke="#282828" stroke-width="0.5"/>
<path d="M28.6595 30.5685V27.5075C28.6595 26.6995 28.0045 26.0444 27.1965 26.0444C26.3884 26.0444 25.7334 26.6995 25.7334 27.5075V30.5685C25.7334 31.3766 26.3884 32.0316 27.1965 32.0316C28.0045 32.0316 28.6595 31.3766 28.6595 30.5685Z" fill="#282828" stroke="#282828" stroke-width="0.5"/>
<path d="M37.3216 30.5685V27.5075C37.3216 26.6995 36.6666 26.0444 35.8586 26.0444C35.0505 26.0444 34.3955 26.6995 34.3955 27.5075V30.5685C34.3955 31.3766 35.0505 32.0316 35.8586 32.0316C36.6666 32.0316 37.3216 31.3766 37.3216 30.5685Z" fill="#282828" stroke="#282828" stroke-width="0.5"/>
</g>
<defs>
<linearGradient id="paint0_linear_522_396" x1="31.998" y1="63.9991" x2="31.998" y2="0.00135799" gradientUnits="userSpaceOnUse">
<stop stop-color="#F6A10B"/>
<stop offset="1" stop-color="#FED767"/>
</linearGradient>
<linearGradient id="paint1_linear_522_396" x1="31.9981" y1="58.2029" x2="31.9981" y2="5.79725" gradientUnits="userSpaceOnUse">
<stop stop-color="#FED767"/>
<stop offset="1" stop-color="#F6A10B"/>
</linearGradient>
<radialGradient id="paint2_radial_522_396" cx="0" cy="0" r="1" gradientUnits="userSpaceOnUse" gradientTransform="translate(31.9984 32.0572) scale(25.6439 25.6435)">
<stop stop-color="#FEFEFE"/>
<stop offset="0.670588" stop-color="#FEFEFE"/>
<stop offset="0.988235" stop-color="#D9D9D9"/>
<stop offset="1" stop-color="#B4B4B4"/>
</radialGradient>
<clipPath id="clip0_522_396">
<rect width="64" height="64" fill="white"/>
</clipPath>
</defs>
</svg>
