<svg width="28" height="28" viewBox="0 0 28 28" fill="none" xmlns="http://www.w3.org/2000/svg">
<path fill-rule="evenodd" clip-rule="evenodd" d="M13.9993 0.666504C6.63535 0.666504 0.666016 6.63584 0.666016 13.9998C0.666016 16.5198 1.36602 18.8798 2.58335 20.8905L1.39402 24.9332C1.32573 25.1653 1.32124 25.4115 1.38101 25.6459C1.44078 25.8804 1.56261 26.0944 1.73369 26.2655C1.90478 26.4366 2.11879 26.5584 2.35324 26.6182C2.58768 26.678 2.83391 26.6735 3.06602 26.6052L7.10868 25.4158C9.18692 26.6733 11.5703 27.3365 13.9993 27.3332C21.3633 27.3332 27.3327 21.3638 27.3327 13.9998C27.3327 6.63584 21.3633 0.666504 13.9993 0.666504ZM10.9833 17.0172C13.6807 19.7132 16.2553 20.0692 17.1647 20.1025C18.5473 20.1532 19.894 19.0972 20.418 17.8718C20.4842 17.7194 20.5082 17.552 20.4875 17.3871C20.4669 17.2222 20.4024 17.0659 20.3007 16.9345C19.57 16.0012 18.582 15.3305 17.6167 14.6638C17.4151 14.5245 17.1674 14.4686 16.9256 14.5079C16.6837 14.5471 16.4664 14.6785 16.3193 14.8745L15.5193 16.0945C15.4773 16.1601 15.4117 16.2071 15.3361 16.226C15.2605 16.2448 15.1806 16.234 15.1127 16.1958C14.57 15.8852 13.7793 15.3572 13.2113 14.7892C12.6433 14.2212 12.1473 13.4665 11.8687 12.9585C11.8341 12.894 11.8241 12.8191 11.8406 12.7477C11.857 12.6764 11.8987 12.6134 11.958 12.5705L13.19 11.6558C13.3658 11.503 13.4793 11.2908 13.5088 11.0597C13.5383 10.8285 13.4818 10.5946 13.35 10.4025C12.7527 9.52784 12.0567 8.41584 11.0473 7.6785C10.9171 7.58411 10.7645 7.52525 10.6046 7.50772C10.4447 7.49018 10.283 7.51458 10.1353 7.5785C8.90868 8.10384 7.84735 9.4505 7.89802 10.8358C7.93135 11.7452 8.28735 14.3198 10.9833 17.0172Z" fill="#F8BF00"/>
</svg>
