<svg width="64" height="64" viewBox="0 0 64 64" fill="none" xmlns="http://www.w3.org/2000/svg">
<path fill-rule="evenodd" clip-rule="evenodd" d="M63.9986 31.9989C63.9986 49.6728 49.6721 63.9991 31.9993 63.9991C14.3265 63.9991 0 49.6728 0 31.9989C0 14.325 14.3265 0 31.9993 0C49.6735 0 63.9986 14.325 63.9986 31.9989Z" fill="url(#paint0_linear_522_421)"/>
<path fill-rule="evenodd" clip-rule="evenodd" d="M58.2026 31.9987C58.2026 46.4713 46.4709 58.2029 31.9981 58.2029C17.5267 58.2029 5.79492 46.4713 5.79492 31.9987C5.79492 17.5275 17.5267 5.7959 31.9981 5.7959C46.4709 5.7959 58.2026 17.5275 58.2026 31.9987Z" fill="url(#paint1_linear_522_421)"/>
<path fill-rule="evenodd" clip-rule="evenodd" d="M56.1219 31.999C56.1219 45.3218 45.3205 56.1204 31.9975 56.1204C18.6745 56.1204 7.87305 45.3218 7.87305 31.999C7.87305 18.6775 18.6745 7.87354 31.9975 7.87354C45.3205 7.87354 56.1219 18.6762 56.1219 31.999Z" fill="url(#paint2_radial_522_421)"/>
<path d="M27.1542 23H20.1056C19.7323 23 19.4297 23.5079 19.4297 24.1344C19.4297 24.7609 19.7323 25.2688 20.1056 25.2688H27.1542C27.5275 25.2688 27.8302 24.7609 27.8302 24.1344C27.8302 23.5079 27.5275 23 27.1542 23Z" fill="#F8BF00"/>
<path d="M21.8241 26.6797H14.7756C14.4022 26.6797 14.0996 27.1876 14.0996 27.8141C14.0996 28.4406 14.4022 28.9485 14.7756 28.9485H21.8241C22.1975 28.9485 22.5001 28.4406 22.5001 27.8141C22.5001 27.1876 22.1975 26.6797 21.8241 26.6797Z" fill="#F8BF00"/>
<path d="M17.7245 30.5713H10.6759C10.3026 30.5713 10 31.0792 10 31.7057C10 32.3322 10.3026 32.8401 10.6759 32.8401H17.7245C18.0978 32.8401 18.4005 32.3322 18.4005 31.7057C18.4005 31.0792 18.0978 30.5713 17.7245 30.5713Z" fill="#F8BF00"/>
<g clip-path="url(#clip0_522_421)">
<path fill-rule="evenodd" clip-rule="evenodd" d="M44.9126 36.5872C46.2917 35.9622 46.9674 38.114 45.7582 38.6411C45.0992 38.9284 44.4728 38.5467 44.2669 38.0695C43.9604 37.3593 44.2942 36.8674 44.9126 36.5872ZM27.1865 36.5872C28.5656 35.9622 29.2413 38.114 28.0322 38.6411C27.3731 38.9284 26.7467 38.5467 26.5409 38.0695C26.2343 37.3593 26.5681 36.8674 27.1865 36.5872ZM24.1623 31.8984H44.9568C46.4463 31.8984 47.2081 32.3314 47.9146 33.1532C48.7636 34.1408 48.707 35.0043 48.707 36.4652C48.3406 36.3298 48.5566 36.486 48.3162 36.0574C48.0093 35.5103 47.8969 35.34 47.3969 34.9251C46.2065 33.9374 44.3823 33.9392 43.1989 34.9254C41.9815 35.9398 42.439 36.3663 41.8888 36.4652H31.2077C30.5144 36.4652 30.8338 36.3067 30.3402 35.6251C29.1683 34.0068 26.929 33.7119 25.4728 34.9254C24.2192 35.97 24.8095 36.2253 24.1623 36.4652L24.1623 31.8984ZM35.5252 27.4037C37.5572 27.6275 39.9441 28.5496 41.0986 29.6026L40.6105 29.6164H35.5252L35.5252 27.4037ZM27.5012 29.5651C29.4313 28.549 30.6277 27.6924 33.2535 27.4037V29.6191L27.5012 29.5651ZM21.8906 38.7472H24.1628C24.7132 38.846 24.2572 39.2753 25.4735 40.2862C26.9898 41.5466 29.4038 41.2656 30.5897 39.1544C30.7669 38.839 30.6506 38.7472 31.2077 38.7472H41.8888C42.4392 38.846 41.9832 39.2753 43.1995 40.2862C44.657 41.4977 46.8865 41.2096 48.0655 39.5865C48.165 39.4495 48.2034 39.3545 48.3158 39.1544C48.493 38.839 48.3767 38.7472 48.9338 38.7472H50.9791C50.9787 35.9217 51.3378 33.0171 49.1416 31.1189C47.7469 29.9134 46.601 29.6164 44.236 29.6164C43.1769 27.2148 38.0304 25.1186 34.618 25.055C30.2194 24.973 27.1972 27.1681 24.1958 28.7836L21.8906 30.3805V38.7472Z" fill="#282828"/>
</g>
<defs>
<linearGradient id="paint0_linear_522_421" x1="31.998" y1="63.9991" x2="31.998" y2="0.00135799" gradientUnits="userSpaceOnUse">
<stop stop-color="#F6A10B"/>
<stop offset="1" stop-color="#FED767"/>
</linearGradient>
<linearGradient id="paint1_linear_522_421" x1="31.9981" y1="58.2029" x2="31.9981" y2="5.79725" gradientUnits="userSpaceOnUse">
<stop stop-color="#FED767"/>
<stop offset="1" stop-color="#F6A10B"/>
</linearGradient>
<radialGradient id="paint2_radial_522_421" cx="0" cy="0" r="1" gradientUnits="userSpaceOnUse" gradientTransform="translate(31.9975 32.0572) scale(25.6439 25.6435)">
<stop stop-color="#FEFEFE"/>
<stop offset="0.670588" stop-color="#FEFEFE"/>
<stop offset="0.988235" stop-color="#D9D9D9"/>
<stop offset="1" stop-color="#B4B4B4"/>
</radialGradient>
<clipPath id="clip0_522_421">
<rect width="29.1101" height="15.99" fill="white" transform="translate(21.8906 25.0503)"/>
</clipPath>
</defs>
</svg>
