<svg width="64" height="64" viewBox="0 0 64 64" fill="none" xmlns="http://www.w3.org/2000/svg">
<path fill-rule="evenodd" clip-rule="evenodd" d="M63.9986 31.9989C63.9986 49.6728 49.6721 63.9991 31.9993 63.9991C14.3265 63.9991 0 49.6728 0 31.9989C0 14.325 14.3265 0 31.9993 0C49.6735 0 63.9986 14.325 63.9986 31.9989Z" fill="url(#paint0_linear_522_408)"/>
<path fill-rule="evenodd" clip-rule="evenodd" d="M58.2026 31.9987C58.2026 46.4713 46.4709 58.2029 31.9981 58.2029C17.5267 58.2029 5.79492 46.4713 5.79492 31.9987C5.79492 17.5275 17.5267 5.7959 31.9981 5.7959C46.4709 5.7959 58.2026 17.5275 58.2026 31.9987Z" fill="url(#paint1_linear_522_408)"/>
<path fill-rule="evenodd" clip-rule="evenodd" d="M56.1219 31.999C56.1219 45.3218 45.3205 56.1204 31.9975 56.1204C18.6745 56.1204 7.87305 45.3218 7.87305 31.999C7.87305 18.6775 18.6745 7.87354 31.9975 7.87354C45.3205 7.87354 56.1219 18.6762 56.1219 31.999Z" fill="url(#paint2_radial_522_408)"/>
<g clip-path="url(#clip0_522_408)">
<path d="M28.1016 36.8047C28.1016 34.9308 26.577 33.4062 24.7031 33.4062H22.4375C20.5636 33.4062 19.0391 34.9308 19.0391 36.8047V37.9375H17.9062V40.2031H19.0391V43.6016C19.0391 45.4755 20.5636 47 22.4375 47H24.7031C26.577 47 28.1016 45.4755 28.1016 43.6016V40.2031H29.2344V37.9375H28.1016V36.8047ZM21.3047 36.8047C21.3047 36.1801 21.8129 35.6719 22.4375 35.6719H24.7031C25.3278 35.6719 25.8359 36.1801 25.8359 36.8047V37.9375H21.3047V36.8047ZM25.8359 43.6016C25.8359 44.2262 25.3278 44.7344 24.7031 44.7344H22.4375C21.8129 44.7344 21.3047 44.2262 21.3047 43.6016V40.2031H25.8359V43.6016Z" fill="#282828"/>
<path d="M28.1016 21.3984C28.1016 19.5245 26.577 18 24.7031 18H22.4375C20.5636 18 19.0391 19.5245 19.0391 21.3984V22.5312H17.9062V24.7969H19.0391V28.1953C19.0391 30.0692 20.5636 31.5937 22.4375 31.5937H24.7031C26.577 31.5937 28.1016 30.0692 28.1016 28.1953V24.7969H29.2344V22.5312H28.1016V21.3984ZM21.3047 21.3984C21.3047 20.7738 21.8129 20.2656 22.4375 20.2656H24.7031C25.3278 20.2656 25.8359 20.7738 25.8359 21.3984V22.5312H21.3047V21.3984ZM25.8359 28.1953C25.8359 28.8199 25.3278 29.3281 24.7031 29.3281H22.4375C21.8129 29.3281 21.3047 28.8199 21.3047 28.1953V24.7969H25.8359V28.1953Z" fill="#F8BF00"/>
<path d="M43.9609 36.8047C43.9609 34.9308 42.4364 33.4062 40.5625 33.4062H38.2969C36.423 33.4062 34.8984 34.9308 34.8984 36.8047V37.9375H33.7656V40.2031H34.8984V43.6016C34.8984 45.4755 36.423 47 38.2969 47H40.5625C42.4364 47 43.9609 45.4755 43.9609 43.6016V40.2031H45.0938V37.9375H43.9609V36.8047ZM37.1641 36.8047C37.1641 36.1801 37.6722 35.6719 38.2969 35.6719H40.5625C41.1871 35.6719 41.6953 36.1801 41.6953 36.8047V37.9375H37.1641V36.8047ZM41.6953 43.6016C41.6953 44.2262 41.1871 44.7344 40.5625 44.7344H38.2969C37.6722 44.7344 37.1641 44.2262 37.1641 43.6016V40.2031H41.6953V43.6016Z" fill="#F8BF00"/>
<path d="M43.9609 22.5312V21.3984C43.9609 19.5245 42.4364 18 40.5625 18H38.2969C36.423 18 34.8984 19.5245 34.8984 21.3984V22.5312H33.7656V24.7969H34.8984V28.1953C34.8984 30.0692 36.423 31.5938 38.2969 31.5938H40.5625C42.4364 31.5938 43.9609 30.0692 43.9609 28.1953V24.7969H45.0938V22.5312H43.9609ZM37.1641 21.3984C37.1641 20.7738 37.6722 20.2656 38.2969 20.2656H40.5625C41.1871 20.2656 41.6953 20.7738 41.6953 21.3984V22.5312H37.1641V21.3984ZM41.6953 28.1953C41.6953 28.8199 41.1871 29.3281 40.5625 29.3281H38.2969C37.6722 29.3281 37.1641 28.8199 37.1641 28.1953V24.7969H41.6953V28.1953Z" fill="black"/>
<path d="M30.3672 18H32.6328V47H30.3672V18Z" fill="#282828"/>
</g>
<defs>
<linearGradient id="paint0_linear_522_408" x1="31.998" y1="63.9991" x2="31.998" y2="0.00135799" gradientUnits="userSpaceOnUse">
<stop stop-color="#F6A10B"/>
<stop offset="1" stop-color="#FED767"/>
</linearGradient>
<linearGradient id="paint1_linear_522_408" x1="31.9981" y1="58.2029" x2="31.9981" y2="5.79725" gradientUnits="userSpaceOnUse">
<stop stop-color="#FED767"/>
<stop offset="1" stop-color="#F6A10B"/>
</linearGradient>
<radialGradient id="paint2_radial_522_408" cx="0" cy="0" r="1" gradientUnits="userSpaceOnUse" gradientTransform="translate(31.9975 32.0572) scale(25.6439 25.6435)">
<stop stop-color="#FEFEFE"/>
<stop offset="0.670588" stop-color="#FEFEFE"/>
<stop offset="0.988235" stop-color="#D9D9D9"/>
<stop offset="1" stop-color="#B4B4B4"/>
</radialGradient>
<clipPath id="clip0_522_408">
<rect width="29" height="29" fill="white" transform="translate(17 18)"/>
</clipPath>
</defs>
</svg>
